<svg xmlns="http://www.w3.org/2000/svg" width="64" height="64" viewBox="0 0 64 64">
  <g fill="none" fill-rule="evenodd">
    <circle cx="32" cy="32" r="32" fill="#FFF"/>
    <path fill="#7D120D" fill-rule="nonzero" d="M11.5,0 C11.777,0 12,0.223 12,0.5 L12,4.5 C12,4.777 11.777,5 11.5,5 C11.223,5 11,4.777 11,4.5 L11,0.5 C11,0.223 11.223,0 11.5,0 Z M16.5,0 C16.777,0 17,0.223 17,0.5 L17,4.5 C17,4.777 16.777,5 16.5,5 C16.223,5 16,4.777 16,4.5 L16,0.5 C16,0.223 16.223,0 16.5,0 Z M6.5,0 C6.777,0 7,0.223 7,0.5 L7,4.5 C7,4.777 6.777,5 6.5,5 C6.223,5 6,4.777 6,4.5 L6,0.5 C6,0.223 6.223,0 6.5,0 Z M3.5,9 L19.5,9 C19.777,9 20,9.223 20,9.5 C20,9.777 19.777,10 19.5,10 L3.5,10 C3.223,10 3,9.777 3,9.5 C3,9.223 3.223,9 3.5,9 Z M24.5,8 C23.84,8 23.848,9 24.5,9 L25.5,9 C27.44,9 29,10.56 29,12.5 C29,14.44 27.44,16 25.5,16 L24.5,16 C23.843,16 23.844,17 24.5,17 L25.5,17 C27.98,17 30,14.98 30,12.5 C30,10.02 27.98,8 25.5,8 L24.5,8 Z M0.5,6 C0.224,6.004 -0.004,6.224 -2.71050543e-20,6.5 L-2.71050543e-20,18.5 C-2.71050543e-20,23.19 2.798,27.21 6.816,29 L0.5,29 C0.223,29 -2.71050543e-20,29.223 -2.71050543e-20,29.5 C-2.71050543e-20,29.777 0.223,30 0.5,30 L22.5,30 C22.777,30 23,29.777 23,29.5 C23,29.223 22.777,29 22.5,29 L16.184,29 C20.202,27.21 23,23.19 23,18.5 L23,6.5 C23,5.848 22,5.83 22,6.5 L22,18.5 C22,24.326 17.326,29 11.5,29 C5.674,29 1,24.326 1,18.5 L1,6.5 C1.004,6.218 0.782,5.996 0.5,6 Z" transform="translate(17 17)"/>
  </g>
</svg>
